<svg id="Layer_1" xmlns="http://www.w3.org/2000/svg" version="1.1" viewBox="0 0 300 300">
  
  <defs>
    <style>
      .st0 {
        fill: #fff;
      }

      .st0, .st1 {
        fill-rule: evenodd;
      }

      .st1 {
        fill: #03853d;
      }
    </style>
  </defs>
  <path class="st1" d="M150,0C232.84,0,300,67.16,300,150s-67.16,150-150,150S0,232.84,0,150,67.16,0,150,0"></path>
  <g id="Icon">
    <path class="st0" d="M70.39,232.45c-3.11.61-6.14-1.43-6.75-4.54-.61-3.11,1.43-6.14,4.54-6.75,0,0,56.06-11.19,95.97-74.14,1.7-2.68,5.25-3.47,7.94-1.77,2.68,1.7,3.47,5.25,1.78,7.94-42.9,67.66-103.48,79.27-103.48,79.27Z"></path>
    <path class="st0" d="M125.49,128.32c1.43,2.83.31,6.3-2.52,7.74-2.83,1.43-6.3.31-7.74-2.52-3.41-6.73-6.54-13.85-9.23-21.32-1.07-2.99.48-6.28,3.47-7.36,2.98-1.07,6.28.48,7.36,3.47,2.52,7.01,5.45,13.68,8.66,19.99h0Z"></path>
    <path class="st0" d="M220.58,87.27s7.1,26.78,2.85,56.67c-2.89,20.39-11.05,42.13-29.81,58.17-19.69,16.83-51.35,27.56-101.88,22.76-2.79-.27-4.99-2.52-5.19-5.32,0,0-4.46-62.77,40.09-103.34,18.99-17.3,46.9-30.7,88.02-33.22,2.74-.17,5.22,1.63,5.91,4.28h0ZM210.48,94.84c-35.12,3.01-59.39,14.67-76.08,29.88-33.38,30.4-36.44,74.53-36.48,89.12,43.27,3.28,70.91-5.67,88.24-20.48,16.42-14.04,23.35-33.18,25.89-51.04,2.88-20.32.09-39.08-1.56-47.48h0Z"></path>
    <path class="st0" d="M151.74,104.36c1.96,2.5,1.52,6.11-.97,8.08-2.5,1.96-6.12,1.53-8.08-.97-9.89-12.6-25.13-23.82-48.16-31.3-2.36,5.55-6.2,15.9-7.97,28.14-2.56,17.72-.83,39.59,17.25,55.87,2.36,2.12,2.55,5.76.42,8.12s-5.76,2.55-8.12.42c-21.42-19.3-23.97-45.06-20.93-66.07,2.95-20.4,11.12-36.11,11.12-36.11,1.26-2.44,4.07-3.64,6.7-2.88,28.6,8.28,46.99,21.72,58.73,36.69h0Z"></path>
  </g>
</svg>