<svg id="Layer_1" xmlns="http://www.w3.org/2000/svg" version="1.1" viewBox="0 0 300 300">
  
  <defs>
    <style>
      .st0 {
        fill: #03853d;
        fill-rule: evenodd;
      }

      .st1 {
        fill: none;
        stroke: #fff;
        stroke-miterlimit: 13.33;
        stroke-width: 6.61px;
      }
    </style>
  </defs>
  <path class="st0" d="M150,0C232.84,0,300,67.16,300,150s-67.16,150-150,150S0,232.84,0,150,67.16,0,150,0"></path>
  <g id="g1225">
    <g id="g1231">
      <path id="path1233" class="st1" d="M105.7,207.43l-5.94,9.39c-2.37,3.99-.86,7.56-.1,8.91.77,1.36,3.06,4.54,7.76,4.54"></path>
    </g>
    <g id="g1235">
      <path id="path1237" class="st1" d="M149.16,99.41h-25.1c-3.54,0-6.4,2.87-6.4,6.4v.11c0,3.54,2.87,6.4,6.4,6.4v42.47l-35.03,55.4c-8.71,14.34,1.62,32.69,18.39,32.69h72c2.1,0,4.09-.29,5.96-.82"></path>
    </g>
    <g id="g1239">
      <path id="path1241" class="st1" d="M181.97,185.12l-19.17-30.32v-42.47h.05c3.54,0,6.4-2.87,6.4-6.4v-.11c0-3.54-2.87-6.4-6.4-6.4h-7.95"></path>
    </g>
    <g id="g1243">
      <path id="path1245" class="st1" d="M126.23,177.26h-15.81"></path>
    </g>
    <g id="g1247">
      <path id="path1249" class="st1" d="M176.43,177.26h-44.42"></path>
    </g>
    <g id="g1251">
      <path id="path1253" class="st1" d="M124.06,112.32h38.73"></path>
    </g>
    <g id="g1255">
      <path id="path1257" class="st1" d="M149.21,132.03h-5.76"></path>
    </g>
    <g id="g1259">
      <path id="path1261" class="st1" d="M143.45,137.38h-5.76"></path>
    </g>
    <g id="g1263">
      <path id="path1265" class="st1" d="M125.3,62.71c0,4.22-3.42,7.64-7.64,7.64s-7.64-3.42-7.64-7.64,3.42-7.64,7.64-7.64,7.64,3.42,7.64,7.64Z"></path>
    </g>
    <g id="g1267">
      <path id="path1269" class="st1" d="M152.04,78.94c0,4.74-3.84,8.59-8.59,8.59s-8.59-3.84-8.59-8.59,3.84-8.59,8.59-8.59,8.59,3.84,8.59,8.59Z"></path>
    </g>
    <g id="g1271">
      <path id="path1273" class="st1" d="M230.77,197.43c2.15,4.38,3.36,9.31,3.36,14.52,0,18.22-14.77,32.98-32.98,32.98s-32.98-14.77-32.98-32.98,14.77-32.98,32.98-32.98c10.95,0,20.65,5.33,26.65,13.54"></path>
    </g>
    <g id="g1275">
      <path id="path1277" class="st1" d="M185.47,197.87l30.57,30.57"></path>
    </g>
    <g id="g1279">
      <path id="path1281" class="st1" d="M216.04,197.87l-30.57,30.57"></path>
    </g>
  </g>
</svg>