<svg id="Layer_1" xmlns="http://www.w3.org/2000/svg" version="1.1" viewBox="0 0 300 300">
  
  <defs>
    <style>
      .st0 {
        fill: #fff;
        stroke: #03853d;
        stroke-miterlimit: 13.33;
        stroke-width: .75px;
      }

      .st1 {
        fill: #03853d;
        fill-rule: evenodd;
      }
    </style>
  </defs>
  <path class="st1" d="M150,0C232.84,0,300,67.16,300,150s-67.16,150-150,150S0,232.84,0,150,67.16,0,150,0"></path>
  <g>
    <path class="st0" d="M162.9,51.36c1.35.8,2.06,1.44,2.6,2.99.77,2.25,3.11,16.18,3.81,16.67,8.26,1.92,15.99,5.4,23.36,9.51l16.32-10.24c1.36-.33,2.54.47,3.56,1.26,3.48,2.68,12.98,12.28,15.78,15.78,1.15,1.44,2.08,2.74,1.16,4.65l-9.74,14.92c-.51,1.31,2.28,4.91,3,6.4,2.74,5.65,4.75,11.59,6.42,17.63l16.84,3.74,2.69,2.5v25.4c-.55.29-.54,1.08-.89,1.42-2.29,2.3-14.16,3.19-17.9,4.6-1.81.69-2.1,4.59-2.75,6.48-2.06,6.01-4.73,11.33-7.68,16.93,0,1.23,8.07,12.19,9.27,14.56,1.31,2.55,1.65,3.19-.25,5.65-2.67,3.47-12.29,12.99-15.77,15.78-1.18.95-2.45,1.96-4.06,1.35l-16.66-10.54c-7,4.46-14.84,7.22-22.78,9.55l-3.84,17.32-2.78,2.61c-7.63-.39-16.28.79-23.79.1-1.98-.18-3.19-1.15-3.92-3l-3.75-17.03c-7.93-2.33-15.78-5.09-22.78-9.55-.88-.14-12.69,8.51-14.87,9.62-2.55,1.31-3.19,1.65-5.65-.25-3.47-2.67-12.99-12.29-15.78-15.78-.95-1.18-1.96-2.45-1.35-4.06l9.92-15.5.13-1.42c-4.15-6.96-7.26-14.45-9.27-22.31-.79-.96-14.52-3.08-17.11-4.05-1.92-.72-2.54-1.8-2.72-3.82-.51-5.62-.52-17.12,0-22.74.18-1.95,1.15-3.24,3-3.92,4.84-1.79,11.53-1.97,16.55-3.65,2.12-8.17,5.24-16.05,9.63-23.25.17-1.72-10.07-13.88-10.3-16.92-.1-1.29.58-2.26,1.33-3.23,2.67-3.46,12.29-13,15.77-15.78,2.64-2.11,3.28-1.83,6.09-.3,2.22,1.21,12.91,8.98,13.99,9.08,7.37-4.11,15.1-7.59,23.36-9.51.7-.49,3.03-14.42,3.81-16.67.53-1.55,1.25-2.19,2.6-2.99h25.4ZM158.62,59.11h-16.83c-.69.44-2.8,13.71-3.53,15.9-1.28,3.8-6.28,3.57-9.6,4.64-4.47,1.43-8.92,3.24-13.09,5.38-3.06,1.57-6.5,5.36-9.96,3.43l-13.91-9.21h-.74s-11.51,11.62-11.51,11.62c-.14.79,7.73,11.58,8.73,13.49.57,1.07,1.31,2.11,1.26,3.38-.07,1.74-3.13,5.66-4.08,7.5-2.09,4.07-3.87,8.44-5.29,12.8-1.02,3.15-1.05,8.57-4.42,9.82-2.08.77-16.08,3-16.27,3.82l.07,16.63c.45.7,13.97,2.79,16.2,3.61,3.53,1.3,3.54,6.75,4.63,9.99,2.29,6.81,5.47,12.85,9.04,19.05l-.13,2.78-9.61,14.66v.74s11.62,11.51,11.62,11.51c.87.15,12.64-8.6,14.94-9.59.74-.32,1.44-.66,2.27-.64,6.48,3.12,12.29,6.55,19.18,8.84,3.24,1.08,9.12,1.27,10.42,4.58.85,2.18,3.14,16.68,3.98,16.87l16.62-.07c.71-.46,2.88-14.2,3.7-16.5,1.36-3.81,7.04-3.74,10.51-4.89,6.78-2.24,12.61-5.58,18.92-8.79.93-.16,1.72.24,2.53.59,4.56,1.95,9.86,7.06,14.44,9.45h.74s11.51-11.62,11.51-11.62l-9.75-15.17c-.48-1.12-.25-2.23.09-3.34.89-2.93,4.92-8.5,6.42-12.05.88-2.08,1.68-4.3,2.41-6.45,1.1-3.27,1.1-8.69,4.63-9.99,2.08-.77,16.08-3,16.27-3.82l-.07-16.63c-.44-.69-13.71-2.8-15.9-3.53-3.8-1.28-3.57-6.28-4.64-9.6-1.43-4.47-3.24-8.92-5.38-13.09-1.57-3.06-5.35-6.5-3.43-9.96l9.21-13.91v-.74s-11.62-11.51-11.62-11.51l-14.41,9.35c-3.46,1.92-6.91-1.87-9.96-3.43-4.07-2.09-8.44-3.87-12.8-5.29-3.15-1.02-8.57-1.05-9.81-4.42-.83-2.24-2.92-15.76-3.61-16.21Z"></path>
    <path class="st0" d="M130.96,196.06v-29.05c-2.59-3.71-14.15-12.37-15.22-15.95-.36-1.21-.39-8.46-.09-9.75.71-3.16,5.09-4.12,7.02-1.02,1.36,2.18.06,5.58.79,8.06,4.89,5.33,10.78,9.91,15.02,15.77l.18,34.65,7.69,1.16v-54.07c-9.17-3.38-14.17-12.2-10.07-21.62,5.09-11.7,22.39-11.85,27.72-.26,4.33,9.43-.68,18.48-9.95,21.88v54.07l7.69-1.16.18-34.65c4.24-5.86,10.13-10.44,15.02-15.77.74-2.47-.57-5.87.79-8.06,1.93-3.1,6.31-2.13,7.02,1.02.29,1.29.27,8.54-.09,9.75-1.06,3.59-12.63,12.25-15.22,15.95v29.05c29.49-12.64,40.11-48.52,21.48-75.16-21.57-30.83-69.25-26.78-85.67,6.92-.99,2.03-2.85,8.52-3.94,9.53-2.86,2.66-6.97.4-6.49-3.79.97-8.45,11.83-22.48,18.26-27.92,43.75-37.03,109.4,6.81,92.16,61.77-15.75,50.2-86.71,54.22-107.82,5.83-1.24-2.84-4.74-9.82-.6-11.51,5.28-2.16,5.77,4.16,7.14,7.28,5.39,12.19,14.57,21.98,27,27.06ZM157.9,130.64c0-4.25-3.45-7.7-7.69-7.7s-7.69,3.45-7.69,7.7,3.45,7.7,7.69,7.7,7.69-3.45,7.69-7.7Z"></path>
    <circle class="st0" cx="96.33" cy="149.89" r="3.8"></circle>
  </g>
</svg>