<svg id="Layer_1" xmlns="http://www.w3.org/2000/svg" version="1.1" viewBox="0 0 300 300">
  
  <defs>
    <style>
      .st0 {
        fill: #ffec01;
      }

      .st1 {
        fill: #03853d;
        fill-rule: evenodd;
      }
    </style>
  </defs>
  <path class="st1" d="M150,0C232.84,0,300,67.16,300,150s-67.16,150-150,150S0,232.84,0,150,67.16,0,150,0"></path>
  <g>
    <path class="st0" d="M216.07,153.18c1.75,0,3.18-1.42,3.18-3.18s-1.42-3.18-3.18-3.18h-13.77v-3.81h13.77c1.75,0,3.18-1.42,3.18-3.18s-1.42-3.18-3.18-3.18h-20.33c-3.66,0-6.95,2-8.68,5.08h-22.53c-1.65-2.89-4.14-5.25-7.13-6.74l-.8-21.73c4.02-2.89,6.74-8.31,6.74-14.53,0-9.23-5.99-16.73-13.34-16.73s-13.34,7.51-13.34,16.73c0,6.21,2.72,11.64,6.74,14.53l-.8,21.73c-5.52,2.74-9.32,8.43-9.32,15,0,9.23,7.51,16.73,16.73,16.73,6.22,0,11.66-3.42,14.54-8.47h22.53c1.73,3.08,5.01,5.08,8.68,5.08h20.33c1.75,0,3.18-1.42,3.18-3.18s-1.42-3.18-3.18-3.18h-13.77v-3.81h13.77ZM143.01,98.75c0-5.62,3.2-10.38,6.99-10.38s6.99,4.75,6.99,10.38-3.2,10.38-6.99,10.38-6.99-4.75-6.99-10.38ZM150.99,133.3c-.33-.02-.66-.03-.99-.03s-.66.01-.99.03l.66-17.83c.11,0,.22.01.33.01s.22,0,.33-.01l.66,17.83ZM150,160.38c-5.72,0-10.38-4.65-10.38-10.38s4.66-10.38,10.38-10.38,10.38,4.66,10.38,10.38-4.66,10.38-10.38,10.38ZM195.96,156.99h-.21c-1.64,0-3.07-1.11-3.48-2.7-.36-1.4-1.63-2.38-3.08-2.38h-22.57c.07-.63.11-1.26.11-1.91s-.04-1.28-.11-1.91h22.57c1.45,0,2.71-.98,3.08-2.38.41-1.59,1.84-2.7,3.48-2.7h.21v13.98Z"></path>
    <path class="st0" d="M218.4,66.14c-1.36-1.11-3.36-.91-4.47.45-1.11,1.36-.91,3.36.45,4.47,23.82,19.45,37.48,48.22,37.48,78.94,0,56.17-45.7,101.86-101.86,101.86s-101.86-45.7-101.86-101.86,45.7-101.86,101.86-101.86c17.71,0,35.15,4.61,50.43,13.34,1.52.87,3.46.34,4.33-1.18.87-1.52.34-3.46-1.18-4.33-16.24-9.27-34.77-14.18-53.58-14.18-28.91,0-56.08,11.26-76.52,31.7-20.44,20.44-31.7,47.62-31.7,76.52s11.26,56.08,31.7,76.52c20.44,20.44,47.62,31.7,76.52,31.7s56.08-11.26,76.52-31.7c20.44-20.44,31.7-47.62,31.7-76.52,0-32.63-14.51-63.2-39.82-83.86Z"></path>
    <path class="st0" d="M214.54,85.46c-17.24-17.24-40.16-26.73-64.54-26.73s-47.3,9.49-64.54,26.73c-17.24,17.24-26.73,40.16-26.73,64.54s9.49,47.3,26.73,64.54c17.24,17.24,40.16,26.73,64.54,26.73s47.3-9.49,64.54-26.73c17.24-17.24,26.73-40.16,26.73-64.54s-9.49-47.3-26.73-64.54ZM225.07,189.67l-5.99-3.46c-1.52-.88-3.46-.36-4.34,1.16-.88,1.52-.36,3.46,1.16,4.34l5.98,3.45c-6.79,10.77-15.94,19.92-26.71,26.71l-3.45-5.98c-.88-1.52-2.82-2.04-4.34-1.16-1.52.88-2.04,2.82-1.16,4.34l3.46,5.99c-10.97,5.82-23.35,9.3-36.5,9.79v-6.92c0-1.75-1.42-3.18-3.18-3.18s-3.18,1.42-3.18,3.18v6.92c-13.14-.49-25.53-3.97-36.5-9.79l3.46-5.99c.88-1.52.36-3.46-1.16-4.34-1.52-.88-3.46-.36-4.34,1.16l-3.45,5.98c-10.77-6.79-19.92-15.94-26.71-26.71l5.98-3.45c1.52-.88,2.04-2.82,1.16-4.34-.88-1.52-2.82-2.04-4.34-1.16l-5.99,3.46c-5.82-10.97-9.3-23.35-9.79-36.5h6.92c1.75,0,3.18-1.42,3.18-3.18s-1.42-3.18-3.18-3.18h-6.92c.49-13.14,3.97-25.53,9.79-36.5l5.99,3.46c1.62.94,3.75.23,4.5-1.48.64-1.46.06-3.23-1.32-4.02l-5.98-3.45c6.79-10.77,15.94-19.92,26.71-26.71l3.45,5.98c.93,1.62,3.13,2.08,4.64.97,1.29-.95,1.66-2.76.87-4.15l-3.46-5.99c10.97-5.82,23.35-9.3,36.49-9.79v6.92c0,1.75,1.42,3.18,3.18,3.18s3.18-1.42,3.18-3.18v-6.92c13.14.49,25.53,3.97,36.5,9.79l-3.46,5.99c-.8,1.38-.42,3.2.87,4.15,1.51,1.11,3.7.65,4.64-.97l3.45-5.98c10.77,6.79,19.92,15.94,26.71,26.71l-5.98,3.45c-1.38.8-1.96,2.56-1.32,4.02.75,1.71,2.88,2.41,4.5,1.48l5.99-3.46c5.82,10.97,9.3,23.35,9.79,36.5h-6.92c-1.75,0-3.18,1.42-3.18,3.18s1.42,3.18,3.18,3.18h6.92c-.49,13.14-3.97,25.53-9.79,36.49Z"></path>
  </g>
</svg>