<svg id="Layer_1" xmlns="http://www.w3.org/2000/svg" version="1.1" viewBox="0 0 300 300">
  
  <defs>
    <style>
      .st0 {
        fill: none;
        stroke: #ffec01;
        stroke-linecap: round;
        stroke-linejoin: round;
        stroke-width: 7px;
      }

      .st1 {
        fill: #03853d;
        fill-rule: evenodd;
      }
    </style>
  </defs>
  <path class="st1" d="M150,0C232.84,0,300,67.16,300,150s-67.16,150-150,150S0,232.84,0,150,67.16,0,150,0"></path>
  <g>
    <path id="path225" class="st0" d="M135.89,196.67l-27.66,47.91-6.77-25.26-25.35,6.79,26.54-45.97"></path>
    <path id="path229" class="st0" d="M197.24,179.97l26.64,46.15-25.35-6.79-6.77,25.26-27.8-48.15"></path>
    <path id="path233" class="st0" d="M156.86,56.79h0c7.66-3.14,16.47-.77,21.54,5.77h0c2.96,3.82,7.3,6.33,12.08,6.98h0c8.2,1.12,14.65,7.57,15.77,15.77h0c.65,4.79,3.16,9.13,6.98,12.08h0c6.55,5.07,8.91,13.88,5.77,21.54h0c-1.83,4.47-1.83,9.48,0,13.95h0c3.14,7.66.77,16.47-5.77,21.54h0c-3.82,2.96-6.33,7.3-6.98,12.08h0c-1.12,8.2-7.57,14.65-15.77,15.77h0c-4.79.65-9.13,3.16-12.08,6.98h0c-5.07,6.55-13.88,8.91-21.54,5.77h0c-4.47-1.83-9.48-1.83-13.95,0h0c-7.66,3.14-16.47.77-21.54-5.77h0c-2.96-3.82-7.3-6.33-12.08-6.98h0c-8.2-1.12-14.65-7.57-15.77-15.77h0c-.65-4.79-3.16-9.13-6.98-12.08h0c-6.55-5.07-8.91-13.88-5.77-21.54h0c1.83-4.47,1.83-9.48,0-13.95h0c-3.14-7.66-.77-16.47,5.77-21.54h0c3.82-2.96,6.33-7.3,6.98-12.08h0c1.12-8.2,7.57-14.65,15.77-15.77h0c4.79-.65,9.13-3.16,12.08-6.98h0c5.07-6.55,13.88-8.91,21.54-5.77h0c4.47,1.83,9.48,1.83,13.95,0Z"></path>
    <path id="path237" class="st0" d="M145.6,148.81l-22.44-22.44,11.96-11.96,10.47,10.47,19.28-19.28,11.96,11.96-31.24,31.24Z"></path>
    <path id="path241" class="st0" d="M133,84.3c-17.07,6.77-29.14,23.43-29.14,42.91,0,25.48,20.66,46.14,46.14,46.14s46.14-20.66,46.14-46.14c0-19.48-12.07-36.14-29.14-42.91"></path>
    <path id="path245" class="st0" d="M150,81.07h0"></path>
  </g>
</svg>