<svg id="Layer_1" xmlns="http://www.w3.org/2000/svg" version="1.1" viewBox="0 0 300 300">
  
  <defs>
    <style>
      .st0 {
        fill: #ffec01;
      }

      .st1 {
        fill: #03853d;
        fill-rule: evenodd;
      }
    </style>
  </defs>
  <path class="st1" d="M150,0C232.84,0,300,67.16,300,150s-67.16,150-150,150S0,232.84,0,150,67.16,0,150,0"></path>
  <g id="Go_Green-2">
    <path class="st0" d="M226.47,157.28c-5.53-5.54-14.51-5.54-20.04,0h0s-24.26,24.26-24.26,24.26c-2.17-4.01-6.36-6.52-10.92-6.54h-35.49c-12.11-14.66-33.82-16.72-48.47-4.61-.84.69-1.65,1.43-2.42,2.2l-13.62,13.62-4.04-4.04c-1.22-1.22-3.2-1.22-4.42,0,0,0,0,0,0,0l-12.5,12.5c-1.22,1.22-1.22,3.2,0,4.42,0,0,0,0,0,0l50,50c1.22,1.22,3.2,1.22,4.42,0,0,0,0,0,0,0l12.5-12.5c1.22-1.22,1.22-3.2,0-4.42,0,0,0,0,0,0l-4.04-4.04,3.5-3.5c1.76-1.75,4.14-2.74,6.63-2.75h45.67c8.29.02,16.25-3.27,22.1-9.15l35.4-35.4c5.54-5.53,5.54-14.51,0-20.04h0ZM102.5,242.46l-45.58-45.58,8.08-8.08,45.58,45.58-8.08,8.08ZM222.06,172.9l-35.4,35.4c-4.68,4.7-11.04,7.34-17.68,7.32h-45.67c-4.15-.01-8.12,1.64-11.05,4.58l-3.5,3.5-33.08-33.08,13.62-13.62c11.01-11.01,28.85-11,39.86,0,.77.77,1.5,1.59,2.18,2.45l.48.61c.59.75,1.5,1.19,2.45,1.19h36.99c3.45,0,6.25,2.8,6.25,6.25s-2.8,6.25-6.25,6.25h-43.75c-1.73,0-3.13,1.4-3.13,3.13s1.4,3.13,3.13,3.13h43.75c6.33-.02,11.64-4.77,12.35-11.06l27.24-27.24c3.14-2.99,8.07-2.99,11.21,0,3.09,3.09,3.09,8.11,0,11.21h0s0,0,0,0Z"></path>
    <path class="st0" d="M101.7,113.68c-.04.06-.11.1-.15.16-.01.02,0,.04-.02.05-9.5,12.07-14.67,26.99-14.66,42.36,0,.51,0,1.02.04,1.53.11,1.64,1.47,2.91,3.11,2.91.07,0,.15,0,.22,0,1.72-.12,3.02-1.61,2.9-3.33,0,0,0,0,0,0-.03-.37-.02-.73-.02-1.1,0-13.14,4.17-25.93,11.91-36.55,8.84,5.77,14.01,11.35,14.22,15.5-.33,3.95-1.57,7.77-3.64,11.15-.92,1.9-1.89,3.9-2.78,6.04-.66,1.59.09,3.42,1.68,4.09,1.59.66,3.42-.09,4.09-1.68.84-2.03,1.76-3.92,2.63-5.72,2.59-4.3,4.06-9.19,4.26-14.21-.32-6.3-5.92-13.04-16.53-20.06,4.78-5.42,10.47-9.97,16.8-13.45,6.09,11.86,13.41,18.12,21.41,18.12.58,0,1.16-.03,1.74-.1,5.54-.35,10.83-2.44,15.11-5.98,2.75-2.13,3.89-3.01,10.2-.8,5.89,2.05,12.1-.52,17.73-7.19,4.87,3.49,9.21,7.66,12.9,12.38-3.76,4.02-6.72,8.72-8.72,13.84-2.67,5.82-4.47,9.4-7.78,9.72-2.15.13-4.31.12-6.46-.03-8.25-.41-18.5-.89-25.83,13.51-1.66,3.25-2.78,6.74-3.3,10.35-.24,1.71.95,3.29,2.66,3.53.15.02.29.03.44.03,1.56,0,2.87-1.15,3.09-2.69.42-2.93,1.33-5.76,2.69-8.39,5.49-10.79,11.88-10.47,19.95-10.1,2.44.17,4.89.17,7.34,0,7.09-.67,10.04-7.11,12.89-13.34,1.62-4.09,3.88-7.89,6.7-11.25,4.18,6.61,7.07,13.96,8.51,21.65.32,1.7,1.95,2.82,3.64,2.5,1.7-.32,2.82-1.95,2.5-3.64h0c-5.92-31.31-32.59-54.43-64.42-55.86v-3.45c0-3.57,2.04-6.83,5.25-8.39,3.52,4.1,8.65,6.46,14.05,6.46,2.53-.02,5.04-.47,7.42-1.33,3.99-1.4,7.77-3.32,11.24-5.72,3.07-2.75,7.43-3.54,11.26-2.02,1.67.43,3.37-.58,3.8-2.25.24-.94.03-1.95-.57-2.71-.67-.85-16.58-20.78-31.9-17.93-14.78,2.76-16.52,11.72-17.24,19.5-2.56,1.09-4.79,2.84-6.44,5.08-1.66-2.24-3.88-3.99-6.44-5.08-.72-7.78-2.45-16.74-17.24-19.5-15.32-2.87-31.23,17.08-31.9,17.93-1.07,1.36-.83,3.32.52,4.39.76.6,1.77.81,2.71.57,3.83-1.51,8.19-.73,11.26,2.02,3.47,2.4,7.25,4.33,11.24,5.72,2.38.86,4.89,1.31,7.42,1.33,5.4,0,10.53-2.36,14.05-6.46,3.21,1.56,5.25,4.82,5.25,8.39v3.39c-19.92.89-38.47,10.42-50.8,26.1ZM180.45,56.42c6.85-1.29,15.03,4.66,20.6,9.98-2.82.59-5.48,1.81-7.77,3.56-3.05,2.12-6.37,3.82-9.88,5.05-4.41,1.92-9.53,1.2-13.24-1.86l8.26-3.47c1.59-.66,2.35-2.49,1.68-4.09-.66-1.59-2.49-2.35-4.09-1.68,0,0-.01,0-.02,0l-7.32,3.07c.87-5.35,3.06-8.95,11.76-10.58ZM127.84,75.02c-3.51-1.23-6.83-2.93-9.88-5.05-2.29-1.76-4.95-2.98-7.78-3.56,5.56-5.33,13.72-11.26,20.61-9.98,8.7,1.62,10.89,5.23,11.76,10.58l-7.32-3.07c-1.59-.67-3.42.08-4.09,1.67s.08,3.42,1.67,4.09h0l8.26,3.47c-3.71,3.07-8.83,3.79-13.24,1.86h0ZM176.28,106.7c-8.84-3.09-12.11-1.31-16.08,1.76-3.38,2.82-7.58,4.48-11.98,4.71-7.4.85-13.36-7.74-16.87-14.52,17.95-7.57,38.4-6.33,55.31,3.34-2.71,3.05-6.53,6.05-10.38,4.71h0Z"></path>
  </g>
</svg>